PathFileType	4	(X/Y/Z)	s10c0401.trc
DataRate	CameraRate	NumFrames	NumMarkers	Units	OrigDataRate	OrigDataStartFrame	OrigNumFrames
200	200	4	50	mm	200	250	2000
Frame#	Time	racr			lacr			c7			jug			rlel			rdr			llel			ldr			s2			lic			ric			lasi			rasi			rpsi			lpsi			rgt			lgt			rth1			rth2			rth3			rth4			rlfc			rmfc			rsh1			rsh2			rsh3			rsh4			rlmal			rmmal			rcal			rtoe			rmt5			lth1			lth2			lth4			lth3			llfc			lmfc			llmal			lmmal			lcal			lmt5			lsh1			lsh2			lsh3			lsh4			ltoe			SBIKE			LBIKE			RBIKE			
		X1	Y1	Z1	X2	Y2	Z2	X3	Y3	Z3	X4	Y4	Z4	X5	Y5	Z5	X6	Y6	Z6	X7	Y7	Z7	X8	Y8	Z8	X9	Y9	Z9	X10	Y10	Z10	X11	Y11	Z11	X12	Y12	Z12	X13	Y13	Z13	X14	Y14	Z14	X15	Y15	Z15	X16	Y16	Z16	X17	Y17	Z17	X18	Y18	Z18	X19	Y19	Z19	X20	Y20	Z20	X21	Y21	Z21	X22	Y22	Z22	X23	Y23	Z23	X24	Y24	Z24	X25	Y25	Z25	X26	Y26	Z26	X27	Y27	Z27	X28	Y28	Z28	X29	Y29	Z29	X30	Y30	Z30	X31	Y31	Z31	X32	Y32	Z32	X33	Y33	Z33	X34	Y34	Z34	X35	Y35	Z35	X36	Y36	Z36	X37	Y37	Z37	X38	Y38	Z38	X39	Y39	Z39	X40	Y40	Z40	X41	Y41	Z41	X42	Y42	Z42	X43	Y43	Z43	X44	Y44	Z44	X45	Y45	Z45	X46	Y46	Z46	X47	Y47	Z47	X48	Y48	Z48	X49	Y49	Z49	X50	Y50	Z50	
250	1.2500	368.144154	1317.965470	-48.248065	368.472098	1309.790354	-390.470706	349.000216	1366.584693	-218.504013	366.119631	1224.340913	-211.367513	457.691938	1071.618692	13.212955	622.335618	912.925883	-33.564547	435.741606	1052.182717	-477.197545	619.179831	914.477185	-430.906917	-118.873704	1088.338493	-213.553855	42.413975	1107.550965	-369.537197	59.900785	1117.957550	-72.609348	78.227861	1019.523667	-337.838377	61.839887	1027.563363	-84.380993	-81.355493	1141.253884	-158.246681	-76.949488	1147.160840	-268.919100	-49.228747	1001.684535	-21.905009	-53.945603	972.759565	-407.846697	50.537894	908.028153	6.904195	139.405601	900.825859	1.153977	208.899976	850.932885	-1.208566	150.599910	936.052799	-8.194017	320.580786	808.533249	-16.375119	320.522944	804.315795	-134.790664	271.428573	701.145002	0.133793	274.247809	614.118002	-20.311365	233.529061	539.061484	-34.089525	304.083305	612.889966	-44.201776	208.095309	441.249150	-60.454944	231.533080	464.687411	-137.621026	156.196970	419.523789	-107.597820	398.326598	404.217623	-105.528813	317.398794	375.968542	-43.147033	18.786286	867.311859	-431.020486	94.472875	824.484547	-426.926643	119.838915	849.967914	-417.904377	138.794152	747.297107	-426.747570	212.638282	659.520014	-414.562304	221.944918	654.321820	-294.730576	-53.867840	395.078708	-376.903958	-34.283628	391.499262	-297.458226	-114.803632	395.222488	-328.856260	2.455966	266.514724	-399.382093	115.174480	582.022792	-432.517620	82.589396	502.333360	-411.634252	10.758741	450.881054	-400.449649	107.505248	489.712979	-386.427115	89.469593	247.621616	-346.321907	-218.535008	833.869277	-214.025058	-104.096741	80.080579	-417.961027	-104.047361	80.446309	-18.357805	
251	1.2550	368.150315	1317.912467	-48.256156	368.451897	1309.716146	-390.506851	349.051917	1366.500555	-218.514254	366.104257	1224.289258	-211.413791	457.602941	1071.489707	13.266942	622.323750	912.930336	-33.545637	435.620820	1052.037103	-477.232397	619.177849	914.482747	-430.964354	-118.841248	1088.345539	-213.564987	42.446744	1107.564280	-369.573974	59.923200	1117.963336	-72.673323	78.229763	1019.492593	-337.840691	61.875665	1027.566153	-84.426529	-81.297235	1141.254214	-158.298353	-76.911239	1147.154707	-268.928574	-49.196087	1001.689499	-21.918232	-53.925103	972.777373	-407.871333	50.547506	908.009948	6.918764	139.419426	900.767853	1.146488	208.910059	850.888612	-1.215789	150.609426	936.026235	-8.178566	320.571674	808.477830	-16.394970	320.497312	804.252447	-134.788643	271.392719	701.036762	0.145788	274.205638	614.052304	-20.299315	233.475679	539.009038	-34.074838	304.061065	612.864608	-44.190893	208.080432	441.166389	-60.443982	231.484143	464.599975	-137.602036	156.269429	419.545566	-107.671698	398.332867	404.191006	-105.530713	317.403978	375.920091	-43.153622	18.818086	867.329064	-431.042876	94.510459	824.495154	-426.951048	119.869754	849.990150	-417.937884	138.838683	747.315082	-426.757380	212.684796	659.527201	-414.547406	221.997512	654.349381	-294.739563	-53.856115	395.134669	-376.906773	-34.236582	391.517460	-297.474977	-114.784443	395.299339	-328.863569	2.456397	266.553422	-399.381321	115.220064	582.041996	-432.504964	82.638027	502.374228	-411.642456	10.780265	450.930479	-400.454235	107.531976	489.742934	-386.411597	89.470520	247.627631	-346.295749	-218.530844	833.881779	-214.008489	-104.063548	80.119519	-418.061107	-104.042361	80.426080	-18.353959	
252	1.2600	368.132999	1317.831211	-48.282084	368.432798	1309.636716	-390.534456	349.135621	1366.423192	-218.544665	366.125976	1224.227983	-211.412408	457.513048	1071.429406	13.267566	622.322852	912.937844	-33.525352	435.512668	1051.885417	-477.256599	619.174313	914.496080	-431.015238	-118.783268	1088.345261	-213.575930	42.485027	1107.544228	-369.584478	59.941153	1117.966562	-72.696115	78.275519	1019.507295	-337.903093	61.896749	1027.567898	-84.414737	-81.288219	1141.258968	-158.300540	-76.843393	1147.151094	-268.952370	-49.175067	1001.678519	-21.936388	-53.903496	972.781484	-407.904067	50.551525	907.986026	6.920066	139.428136	900.706871	1.144116	208.908279	850.846289	-1.244261	150.637531	935.940616	-8.194186	320.569521	808.394599	-16.407924	320.485050	804.188983	-134.804485	271.347411	700.971245	0.137028	274.200231	614.001159	-20.318579	233.488135	538.941856	-34.089185	304.042763	612.829931	-44.174089	208.090596	441.122414	-60.453630	231.471395	464.570213	-137.604429	156.248405	419.455531	-107.654475	398.330698	404.149108	-105.529557	317.415383	375.877988	-43.139976	18.826636	867.334225	-431.051761	94.541853	824.516509	-426.953338	119.909803	850.030254	-417.956568	138.864012	747.327883	-426.742946	212.734565	659.560284	-414.566602	222.044227	654.385069	-294.745219	-53.836174	395.185883	-376.914875	-34.222948	391.557914	-297.489112	-114.761585	395.366204	-328.853217	2.455887	266.610463	-399.380180	115.255876	582.072551	-432.512659	82.653938	502.434051	-411.649574	10.807073	450.980262	-400.441228	107.572755	489.784652	-386.421342	89.450823	247.665851	-346.306861	-218.533031	833.877495	-214.012241	-104.057779	80.150170	-418.042230	-104.045310	80.438267	-18.357737	
253	1.2650	368.124243	1317.752961	-48.283036	368.405385	1309.549438	-390.573483	349.213533	1366.377808	-218.575904	366.115977	1224.177154	-211.427785	457.402606	1071.339624	13.287721	622.315498	912.935412	-33.482592	435.377014	1051.761532	-477.291159	619.156383	914.515411	-431.040526	-118.753526	1088.372249	-213.612503	42.519588	1107.528505	-369.616750	59.965591	1117.964527	-72.762857	78.304024	1019.485281	-337.936383	61.939823	1027.573761	-84.453359	-81.248350	1141.266976	-158.316454	-76.794452	1147.149127	-268.957129	-49.146604	1001.695645	-21.944402	-53.883697	972.785061	-407.912137	50.559284	907.956910	6.919223	139.419155	900.647242	1.144920	208.899543	850.807993	-1.253016	150.643524	935.903200	-8.194568	320.552305	808.323312	-16.407259	320.476193	804.108255	-134.797566	271.342752	700.875787	0.097636	274.180798	613.954091	-20.301738	233.474389	538.883515	-34.086307	304.042715	612.773332	-44.180194	208.100793	441.052652	-60.463407	231.461070	464.525212	-137.600396	156.279222	419.314029	-107.632070	398.341632	404.116950	-105.527154	317.413867	375.824290	-43.135597	18.858211	867.343699	-431.047300	94.569493	824.542280	-426.968529	119.928503	850.048568	-417.955566	138.905770	747.360356	-426.762170	212.771744	659.561715	-414.557842	222.095577	654.416429	-294.749066	-53.821715	395.240694	-376.894341	-34.175465	391.578018	-297.491435	-114.757724	395.434823	-328.848037	2.431964	266.640554	-399.390000	115.293162	582.101177	-432.532240	82.688141	502.474398	-411.658607	10.820914	451.027244	-400.456099	107.592241	489.817048	-386.425781	89.443653	247.700712	-346.313470	-218.538580	833.882334	-214.006749	-104.060688	80.133218	-418.061996	-104.037085	80.432053	-18.366589	
